<svg xmlns="http://www.w3.org/2000/svg" version="1.1" xmlns:xlink="http://www.w3.org/1999/xlink" xmlns:svgjs="http://svgjs.dev/svgjs" width="1000" height="1000" viewBox="0 0 1000 1000"><rect width="1000" height="1000" fill="#000000"></rect><g transform="matrix(0.7,0,0,0.7,149.57576567357955,346.7863286004057)"><svg viewBox="0 0 396 174" data-background-color="#ffffff" preserveAspectRatio="xMidYMid meet" height="439" width="1000" xmlns="http://www.w3.org/2000/svg" xmlns:xlink="http://www.w3.org/1999/xlink"><g id="tight-bounds" transform="matrix(1,0,0,1,0.239995538244699,-0.24705882352938602)"><svg viewBox="0 0 395.5199999999999 174.49411764705877" height="174.49411764705877" width="395.5199999999999"><g><svg viewBox="0 0 395.5199999999999 174.49411764705877" height="174.49411764705877" width="395.5199999999999"><g><svg viewBox="0 0 395.5199999999999 174.49411764705877" height="174.49411764705877" width="395.5199999999999"><g id="textblocktransform"><svg viewBox="0 0 395.5199999999999 174.49411764705877" height="174.49411764705877" width="395.5199999999999" id="textblock"><g><svg viewBox="0 0 395.5199999999999 174.49411764705877" height="174.49411764705877" width="395.5199999999999"><g transform="matrix(1,0,0,1,0,0)"><svg width="395.5199999999999" viewBox="3.200000047683716 -47 158.08999633789062 69.75" height="174.49411764705877" data-palette-color="#040404"><path d="M22.65 0.25Q16.7 0.25 12.3-1.93 7.9-4.1 5.55-8.1 3.2-12.1 3.2-17.4L3.2-17.4Q3.2-24.75 5.98-30.45 8.75-36.15 13.5-39.28 18.25-42.4 24.05-42.4L24.05-42.4Q29.45-42.4 32.25-39.63 35.05-36.85 35.05-32.3L35.05-32.3Q35.05-29.25 33.98-27.4 32.9-25.55 30.9-25.55L30.9-25.55Q29.5-25.55 28.7-26.2 27.9-26.85 27.9-28.1L27.9-28.1Q27.9-28.55 28.1-29.75L28.1-29.75Q28.4-31.25 28.4-32.15L28.4-32.15Q28.4-36.7 23.55-36.7L23.55-36.7Q20.25-36.7 17.25-34.55 14.25-32.4 12.4-28.23 10.55-24.05 10.55-18.3L10.55-18.3Q10.55-12.3 13.9-9.03 17.25-5.75 23.8-5.75L23.8-5.75Q27.05-5.75 30.38-6.58 33.7-7.4 37.75-9.1L37.75-9.1Q38.5-9.4 39-9.4L39-9.4Q39.8-9.4 40.2-8.8 40.6-8.2 40.6-7.25L40.6-7.25Q40.6-4.2 37.3-2.75L37.3-2.75Q33.75-1.2 29.93-0.48 26.1 0.25 22.65 0.25L22.65 0.25ZM64.45-11.15Q65.1-11.15 65.47-10.55 65.85-9.95 65.85-8.9L65.85-8.9Q65.85-6.9 64.9-5.8L64.9-5.8Q62.6-3.15 60.17-1.45 57.75 0.25 54.65 0.25L54.65 0.25Q52.1 0.25 50.8-1.23 49.5-2.7 49.5-5.5L49.5-5.5Q49.5-6.9 50.2-10.5L50.2-10.5Q50.85-13.65 50.85-14.85L50.85-14.85Q50.85-15.65 50.3-15.65L50.3-15.65Q49.65-15.65 48.45-13.98 47.25-12.3 46.05-9.55 44.85-6.8 44.1-3.75L44.1-3.75Q43.15 0.25 39.4 0.25L39.4 0.25Q37.9 0.25 37.42-0.83 36.95-1.9 36.95-4.7L36.95-4.7Q36.95-6.3 37-7.25L37-7.25 37.05-11.25Q37.05-18.95 38.62-27.3 40.2-35.65 43.27-41.33 46.35-47 50.65-47L50.65-47Q52.95-47 54.37-45.03 55.8-43.05 55.8-39.9L55.8-39.9Q55.8-34.85 52.85-29.43 49.9-24 43.25-16.75L43.25-16.75Q43.1-14.15 43.1-11.4L43.1-11.4Q44.75-15.65 46.77-18.32 48.8-21 50.77-22.15 52.75-23.3 54.4-23.3L54.4-23.3Q57.65-23.3 57.65-20.05L57.65-20.05Q57.65-18.1 56.55-13L56.55-13Q55.6-8.65 55.6-7.25L55.6-7.25Q55.6-5.25 57.05-5.25L57.05-5.25Q58.05-5.25 59.42-6.48 60.8-7.7 63.1-10.45L63.1-10.45Q63.7-11.15 64.45-11.15L64.45-11.15ZM49.6-42.05Q48.7-42.05 47.6-39.48 46.5-36.9 45.47-32.52 44.45-28.15 43.8-23L43.8-23Q46.9-26.65 48.92-30.95 50.95-35.25 50.95-38.75L50.95-38.75Q50.95-40.35 50.6-41.2 50.25-42.05 49.6-42.05L49.6-42.05ZM67.95 0.25Q64.85 0.25 63-2 61.15-4.25 61.15-7.9L61.15-7.9Q61.15-11.9 63-15.48 64.85-19.05 67.92-21.23 71-23.4 74.45-23.4L74.45-23.4Q75.55-23.4 75.92-22.98 76.3-22.55 76.55-21.45L76.55-21.45Q77.6-21.65 78.75-21.65L78.75-21.65Q81.2-21.65 81.2-19.9L81.2-19.9Q81.2-18.85 80.45-14.9L80.45-14.9Q79.3-9.15 79.3-6.9L79.3-6.9Q79.3-6.15 79.67-5.7 80.05-5.25 80.65-5.25L80.65-5.25Q81.6-5.25 82.95-6.48 84.3-7.7 86.6-10.45L86.6-10.45Q87.2-11.15 87.95-11.15L87.95-11.15Q88.6-11.15 88.97-10.55 89.35-9.95 89.35-8.9L89.35-8.9Q89.35-6.9 88.4-5.8L88.4-5.8Q86.35-3.25 84.05-1.5 81.75 0.25 79.6 0.25L79.6 0.25Q77.95 0.25 76.57-0.88 75.2-2 74.5-3.95L74.5-3.95Q71.9 0.25 67.95 0.25L67.95 0.25ZM69.75-4.8Q70.85-4.8 71.85-6.1 72.85-7.4 73.3-9.55L73.3-9.55 75.15-18.75Q73.05-18.7 71.27-17.18 69.5-15.65 68.45-13.15 67.4-10.65 67.4-7.85L67.4-7.85Q67.4-6.3 68.02-5.55 68.65-4.8 69.75-4.8L69.75-4.8ZM107.59-11.15Q108.24-11.15 108.62-10.55 108.99-9.95 108.99-8.9L108.99-8.9Q108.99-6.9 108.04-5.8L108.04-5.8Q105.89-3.15 103.34-1.45 100.79 0.25 97.49 0.25L97.49 0.25Q87.29 0.25 87.29-14.1L87.29-14.1Q87.29-16.3 87.44-18.55L87.44-18.55 85.49-18.55Q83.99-18.55 83.47-19.1 82.94-19.65 82.94-20.85L82.94-20.85Q82.94-23.65 85.19-23.65L85.19-23.65 88.04-23.65Q88.89-29.15 90.64-33.7 92.39-38.25 94.87-40.95 97.34-43.65 100.19-43.65L100.19-43.65Q102.29-43.65 103.49-41.8 104.69-39.95 104.69-37.15L104.69-37.15Q104.69-29.4 98.19-23.65L98.19-23.65 103.79-23.65Q104.59-23.65 104.94-23.3 105.29-22.95 105.29-22L105.29-22Q105.29-18.55 99.64-18.55L99.64-18.55 93.54-18.55Q93.44-16.05 93.44-14.65L93.44-14.65Q93.44-9.45 94.67-7.35 95.89-5.25 98.54-5.25L98.54-5.25Q100.69-5.25 102.34-6.55 103.99-7.85 106.24-10.45L106.24-10.45Q106.84-11.15 107.59-11.15L107.59-11.15ZM98.84-38.85Q98.09-38.85 97.17-36.98 96.24-35.1 95.42-31.78 94.59-28.45 94.04-24.4L94.04-24.4Q96.99-26.95 98.47-30.13 99.94-33.3 99.94-35.9L99.94-35.9Q99.94-38.85 98.84-38.85L98.84-38.85ZM111.49-26.6Q109.39-26.6 108.34-27.58 107.29-28.55 107.29-30.3L107.29-30.3Q107.29-32.05 108.67-33.23 110.04-34.4 112.09-34.4L112.09-34.4Q113.94-34.4 115.09-33.5 116.24-32.6 116.24-30.95L116.24-30.95Q116.24-28.95 114.94-27.78 113.64-26.6 111.49-26.6L111.49-26.6ZM111.09 0.25Q107.84 0.25 106.37-2.05 104.89-4.35 104.89-8.15L104.89-8.15Q104.89-10.4 105.47-13.93 106.04-17.45 106.94-20.5L106.94-20.5Q107.39-22.1 108.14-22.7 108.89-23.3 110.54-23.3L110.54-23.3Q113.09-23.3 113.09-21.6L113.09-21.6Q113.09-20.35 112.14-15.8L112.14-15.8Q110.94-10.3 110.94-8.35L110.94-8.35Q110.94-6.85 111.34-6.05 111.74-5.25 112.69-5.25L112.69-5.25Q113.59-5.25 114.94-6.5 116.29-7.75 118.54-10.45L118.54-10.45Q119.14-11.15 119.89-11.15L119.89-11.15Q120.54-11.15 120.92-10.55 121.29-9.95 121.29-8.9L121.29-8.9Q121.29-6.9 120.34-5.8L120.34-5.8Q115.39 0.25 111.09 0.25L111.09 0.25ZM136.69-14Q138.09-14 138.09-11.9L138.09-11.9Q138.09-7.95 131.89-7.95L131.89-7.95Q130.69-7.95 128.44-8.4L128.44-8.4Q129.09-5.3 129.51-1.53 129.94 2.25 129.94 4.7L129.94 4.7Q129.94 10.1 128.19 12.95 126.44 15.8 123.59 15.8L123.59 15.8Q119.99 15.8 118.46 10.7 116.94 5.6 116.94-4.7L116.94-4.7Q116.94-14.3 119.01-24.18 121.09-34.05 124.71-40.53 128.34-47 132.69-47L132.69-47Q135.04-47 136.36-44.9 137.69-42.8 137.69-39.25L137.69-39.25Q137.69-27.5 123.64-13.65L123.64-13.65Q123.14-8.75 123.14-5.05L123.14-5.05Q123.14 0.1 123.49 5.53 123.84 10.95 124.64 10.95L124.64 10.95Q126.14 10.95 126.14 5.75L126.14 5.75Q126.14 1.85 125.61-1.8 125.09-5.45 124.19-9.5L124.19-9.5Q124.14-10.15 124.61-11.15 125.09-12.15 125.79-12.9 126.49-13.65 127.04-13.65L127.04-13.65Q128.04-13.65 129.44-13.55L129.44-13.55Q129.89-13.5 130.49-13.5L130.49-13.5Q132.49-13.5 134.94-13.85L134.94-13.85Q135.34-13.9 135.79-13.95 136.24-14 136.69-14L136.69-14ZM131.64-42.05Q130.74-42.05 129.41-39 128.09-35.95 126.79-30.93 125.49-25.9 124.54-20.3L124.54-20.3Q128.54-24.85 130.69-29.78 132.84-34.7 132.89-39L132.89-39Q132.89-42.05 131.64-42.05L131.64-42.05ZM159.89-11.05Q160.54-11.05 160.91-10.43 161.29-9.8 161.29-8.85L161.29-8.85Q161.29-7.7 160.94-7.05 160.59-6.4 159.84-5.9L159.84-5.9 150.24 0.55Q148.34 10.9 145.26 16.82 142.19 22.75 137.44 22.75L137.44 22.75Q134.89 22.75 133.29 21.18 131.69 19.6 131.69 17.05L131.69 17.05Q131.69 14.7 132.76 12.25 133.84 9.8 136.76 6.63 139.69 3.45 145.04-0.65L145.04-0.65 145.19-1.8Q145.54-3.65 145.99-7.1L145.99-7.1Q144.99-3.5 143.19-1.63 141.39 0.25 139.39 0.25L139.39 0.25Q137.14 0.25 135.71-1.83 134.29-3.9 134.29-7L134.29-7Q134.29-10.75 134.79-13.88 135.29-17 136.44-20.5L136.44-20.5Q136.94-22 137.84-22.65 138.74-23.3 140.69-23.3L140.69-23.3Q141.79-23.3 142.21-22.95 142.64-22.6 142.64-21.9L142.64-21.9Q142.64-21.5 142.09-19.2L142.09-19.2Q141.59-17.35 141.29-15.85L141.29-15.85Q140.89-13.8 140.59-11.93 140.29-10.05 140.29-8.85L140.29-8.85Q140.29-6.95 141.34-6.95L141.34-6.95Q142.09-6.95 143.21-8.45 144.34-9.95 145.61-13 146.89-16.05 148.09-20.5L148.09-20.5Q148.49-22 149.31-22.65 150.14-23.3 151.79-23.3L151.79-23.3Q152.94-23.3 153.39-23 153.84-22.7 153.84-22L153.84-22Q153.84-20.75 152.54-13.4L152.54-13.4 151.24-5.35Q155.09-8.25 158.74-10.65L158.74-10.65Q159.39-11.05 159.89-11.05L159.89-11.05ZM137.99 17.9Q139.24 17.9 140.79 15 142.34 12.1 143.89 5.35L143.89 5.35Q140.04 8.6 138.31 11.28 136.59 13.95 136.59 15.95L136.59 15.95Q136.59 16.8 136.91 17.35 137.24 17.9 137.99 17.9L137.99 17.9Z" opacity="1" transform="matrix(1,0,0,1,0,0)" fill="#ffffff" class="undefined-text-0" data-fill-palette-color="primary" id="text-0"></path></svg></g></svg></g></svg></g></svg></g></svg></g><defs></defs></svg><rect width="395.5199999999999" height="174.49411764705877" fill="none" stroke="none" visibility="hidden"></rect></g></svg></g></svg>